<svg xmlns="http://www.w3.org/2000/svg" version="1.1" xmlns:xlink="http://www.w3.org/1999/xlink" xmlns:svgjs="http://svgjs.dev/svgjs" width="128" height="128" viewBox="0 0 128 128"><g transform="matrix(0.8046875,0,0,0.8046875,12.00862599027667,-0.3185084228515649)"><svg viewBox="0 0 77 96" data-background-color="#ffffff" preserveAspectRatio="xMidYMid meet" height="159" width="128" xmlns="http://www.w3.org/2000/svg" xmlns:xlink="http://www.w3.org/1999/xlink"><g id="tight-bounds" transform="matrix(1,0,0,1,0.3673378519290935,0.25950000000000273)"><svg viewBox="0 0 76.26532429614183 95.481" height="95.481" width="76.26532429614183"><g><svg viewBox="0 0 76.26532429614183 95.481" height="95.481" width="76.26532429614183"><g><svg viewBox="0 0 76.26532429614183 95.481" height="95.481" width="76.26532429614183"><g id="textblocktransform"><svg viewBox="0 0 76.26532429614183 95.481" height="95.481" width="76.26532429614183" id="textblock"><g><svg viewBox="0 0 76.26532429614183 95.481" height="95.481" width="76.26532429614183"><g><svg viewBox="0 0 76.26532429614183 95.481" height="95.481" width="76.26532429614183"><g><svg xmlns="http://www.w3.org/2000/svg" xmlns:xlink="http://www.w3.org/1999/xlink" version="1.1" x="0" y="0" viewBox="11.8 1.7 76.60000000000001 95.89999999999999" style="enable-background:new 0 0 100 100;" xml:space="preserve" height="95.481" width="76.26532429614183" class="icon-icon-0" data-fill-palette-color="accent" id="icon-0"><path d="M88.3 29.1L88.2 28.7C88 28.1 87.7 27.6 87.3 27.2L63.3 2.9C63 2.6 62.7 2.4 62.3 2.2L61 1.8 23 1.7C16.8 1.7 11.8 6.7 11.8 12.9V86.4C11.8 92.6 16.8 97.6 23 97.6H77.2C83.4 97.6 88.4 92.6 88.4 86.4V30.1zM63.4 14.6L76 27.3H66.6C64.9 27.3 63.5 25.9 63.5 24.2V14.6zM24.7 48.4V31.7C24.7 30.8 25.4 30.1 26.3 30.1H33.5V26.8C33.5 26.2 34 25.8 34.5 25.8H43.5C44.1 25.8 44.5 26.3 44.5 26.8V30.1H51.7C52.5 30.1 53.2 30.8 53.2 31.7V48.3C53.2 49.2 52.5 49.9 51.6 49.9H26.3C25.4 49.9 24.7 49.2 24.7 48.4M77.6 85H62.4V81.3H77.6zM77.6 75.3H49.3V71.6H77.6zM77.6 65.9H49.3V62.2H77.6z" fill="#037c6e" data-fill-palette-color="accent"></path><rect x="35.5" y="27.9" width="7" height="2.3" fill="#037c6e" data-fill-palette-color="accent"></rect></svg></g></svg></g></svg></g></svg></g></svg></g></svg></g><defs></defs></svg><rect width="76.26532429614183" height="95.481" fill="none" stroke="none" visibility="hidden"></rect></g></svg></g></svg>